<svg version="1.1" id="Layer_1" xmlns="http://www.w3.org/2000/svg" xmlns:xlink="http://www.w3.org/1999/xlink" x="0px" y="0px"
	 width="100%" viewBox="0 0 176 112" enable-background="new 0 0 176 112" xml:space="preserve">
<path fill="#000000" opacity="1.000000" stroke="none" 
	d="
M61.468620,113.000000 
	C59.646366,111.179520 57.498081,110.514305 55.692410,109.351624 
	C40.818268,99.774132 39.508404,82.301910 50.330910,68.558212 
	C50.955299,67.765289 51.776001,67.186539 53.012085,67.246979 
	C54.981052,68.559746 54.379486,70.275589 53.577015,71.984055 
	C52.939785,73.340721 52.186733,74.643272 51.557610,76.003387 
	C47.503067,84.768997 48.414227,93.262634 54.036144,99.327705 
	C60.343864,106.132622 69.630798,107.959190 78.738770,104.553688 
	C86.851830,101.520187 91.238373,95.714935 91.546577,87.266731 
	C91.846466,79.046204 87.800972,72.833237 80.420029,67.378853 
	C80.420029,71.945206 80.124763,75.552353 80.505814,79.086586 
	C80.863274,82.402092 83.058914,84.399139 86.558662,84.610313 
	C88.073441,84.701714 89.255554,85.255653 89.111786,86.968956 
	C88.977531,88.568939 87.715996,89.232635 86.288818,89.242386 
	C78.957329,89.292473 71.625160,89.286110 64.293564,89.243019 
	C62.899410,89.234833 61.515202,88.799095 61.422398,87.106628 
	C61.327724,85.380180 62.674461,84.965286 64.074280,84.753616 
	C68.667145,84.059105 69.911667,80.837456 69.968369,76.812477 
	C70.038773,71.814667 69.933571,66.812996 70.084679,61.818455 
	C70.137497,60.072693 69.414505,59.018421 68.175972,58.034180 
	C65.828552,56.168728 63.654160,54.056049 61.177574,52.388031 
	C52.894714,46.809406 51.351460,38.623772 53.390732,29.887966 
	C55.277687,21.804665 60.342625,15.922998 69.529869,14.630592 
	C70.963150,7.836524 65.836250,6.838831 61.409679,5.551665 
	C61.026943,2.639390 62.821728,2.065856 64.742424,2.038299 
	C71.738159,1.937928 78.736198,1.942050 85.732666,1.996796 
	C87.187904,2.008183 88.969780,2.062336 89.054855,4.162205 
	C89.126427,5.928699 87.701439,6.235247 86.319611,6.407375 
	C84.757980,6.601902 83.478340,7.383758 82.382065,8.425520 
	C80.990898,9.747513 79.995483,11.423426 80.633522,13.335276 
	C81.237694,15.145669 83.160004,14.843843 84.546555,14.724845 
	C89.728485,14.280111 91.441620,17.082615 91.281708,21.654243 
	C91.163986,25.019926 92.038811,28.513626 90.263504,32.539814 
	C86.169624,29.452967 87.313248,22.293259 80.434898,22.192081 
	C80.434898,32.277561 80.385277,42.363411 80.485649,52.447769 
	C80.501663,54.055809 82.116081,54.851063 83.298904,55.766670 
	C87.383392,58.928391 91.316681,62.235989 94.880516,66.014877 
	C103.840614,75.515656 105.732201,97.130737 92.297356,107.271805 
	C89.788040,109.165924 87.034500,110.736496 84.196838,112.728195 
	C76.645752,113.000000 69.291496,113.000000 61.468620,113.000000 
M81.702888,106.490555 
	C76.813805,108.767258 71.590034,109.428169 66.196648,109.270164 
	C85.547722,114.465157 101.627029,101.297737 99.490158,82.317863 
	C98.498802,73.512497 93.385101,67.012535 86.677910,61.660709 
	C79.787880,56.162998 72.793236,50.796558 65.890511,45.314579 
	C57.522392,38.668819 56.989639,29.099848 64.444023,21.556049 
	C65.264748,20.725477 66.866516,20.316319 66.540825,18.577116 
	C53.632084,23.669184 50.896805,40.723297 61.636341,49.393440 
	C69.266479,55.553337 77.252449,61.276737 84.810997,67.520142 
	C98.575882,78.890030 96.184372,99.640968 81.702888,106.490555 
M72.346329,39.195930 
	C72.230011,43.058044 72.235794,46.845787 77.561325,47.835644 
	C79.287308,33.696339 76.183434,19.616621 79.745926,5.629605 
	C76.698799,4.317523 73.600647,3.972816 70.406403,5.423887 
	C74.153320,16.360029 71.582428,27.411531 72.346329,39.195930 
M65.154022,41.202972 
	C66.361176,42.220310 67.120537,43.971371 69.456001,43.660458 
	C69.456001,36.207069 69.456001,28.780090 69.456001,20.999969 
	C60.958698,26.521801 59.649616,32.533649 65.154022,41.202972 
M77.674599,85.804489 
	C78.152069,85.406204 79.107857,84.857208 79.036827,84.631737 
	C77.399582,79.435127 78.055527,74.069107 77.686195,68.781189 
	C77.514671,66.325500 75.831825,65.086777 72.777977,65.191635 
	C71.654434,71.984390 73.328880,78.817146 71.202515,85.211884 
	C73.286766,86.317314 75.142319,85.829170 77.674599,85.804489 
M83.913940,17.664167 
	C82.687698,21.779060 87.380470,21.001261 88.375893,23.288116 
	C88.562447,20.301769 89.437874,16.839262 83.913940,17.664167 
z"/>
<path fill="#000000" opacity="1.000000" stroke="none" 
	d="
M131.702362,98.347290 
	C114.337547,82.691872 99.833199,64.783714 83.711517,48.428734 
	C81.492989,46.178101 82.359703,44.509354 84.039467,42.434868 
	C91.897133,32.730717 99.640846,22.934120 107.397530,13.148561 
	C108.617798,11.609114 110.145775,10.223019 110.433006,8.212592 
	C110.041046,5.786635 106.600258,6.622626 106.387001,4.066186 
	C106.705307,2.487861 108.083382,1.976806 109.378181,2.160169 
	C116.045479,3.104355 122.675270,1.826308 129.319489,2.015109 
	C130.894806,2.059872 133.012741,1.754414 133.026703,4.226994 
	C133.038498,6.315965 131.197327,6.205735 129.727936,6.412922 
	C125.028915,7.075496 121.429810,9.574294 118.383484,13.093373 
	C110.652351,22.024275 102.925270,30.959951 95.073326,39.784054 
	C93.229523,41.856133 93.287758,43.238098 95.195961,45.223438 
	C109.504364,60.110313 123.594635,75.208733 138.016312,89.984108 
	C145.698166,97.854385 155.403519,102.113754 166.268036,103.701065 
	C168.187134,103.981445 170.892227,103.626137 170.639648,106.469841 
	C170.428360,108.848694 167.792114,109.055206 165.874680,109.248955 
	C154.990738,110.348648 145.127823,107.390396 136.079910,101.424820 
	C134.690369,100.508652 133.344070,99.526894 131.702362,98.347290 
M95.884247,49.605530 
	C95.190521,48.887051 94.572281,48.070946 93.790443,47.466438 
	C89.686783,44.293568 89.765701,40.980061 93.335434,37.477303 
	C94.284843,36.545704 95.258919,35.632767 96.139374,34.638397 
	C104.668472,25.005894 113.180038,15.357856 121.861656,5.527364 
	C118.782745,4.392150 116.095245,3.910931 112.937164,5.112470 
	C114.270096,8.861603 111.998726,11.395402 109.931297,14.001323 
	C102.590332,23.254328 95.241806,32.501347 87.902885,41.755974 
	C86.236588,43.857231 84.454613,45.641602 87.239082,48.536541 
	C100.621811,62.450199 113.809891,76.550911 127.096230,90.557549 
	C131.960312,95.685333 137.664215,99.714371 144.025467,102.746895 
	C148.155197,104.715607 152.448334,106.273109 158.479202,105.377640 
	C149.425095,101.771866 142.100891,97.600143 135.932907,91.708931 
	C122.082848,78.480370 109.607460,63.936855 95.884247,49.605530 
z"/>
</svg>